<svg width="54" height="49" viewBox="0 0 54 49" fill="none" xmlns="http://www.w3.org/2000/svg">
<path d="M14.7528 41.0365L49.8552 25.9898C50.2181 25.8352 50.5275 25.5773 50.745 25.2483C50.9625 24.9193 51.0784 24.5335 51.0784 24.1391C51.0784 23.7447 50.9625 23.359 50.745 23.0299C50.5275 22.7009 50.2181 22.443 49.8552 22.2884L14.7528 7.24166C14.4488 7.10909 14.1166 7.05427 13.7862 7.08215C13.4558 7.11003 13.1375 7.21973 12.86 7.40137C12.5826 7.583 12.3548 7.83084 12.197 8.12254C12.0393 8.41424 11.9567 8.74061 11.9566 9.07222L11.9365 18.3457C11.9365 19.3515 12.6808 20.2165 13.6866 20.3372L42.1105 24.1391L13.6866 27.9209C12.6808 28.0617 11.9365 28.9267 11.9365 29.9325L11.9566 39.206C11.9566 40.6342 13.4251 41.6199 14.7528 41.0365Z" fill="white"/>
<line x1="0.395725" y1="0.791504" x2="0.395725" y2="48.2785" stroke="white" stroke-width="0.791449"/>
</svg>
